<?xml version="1.0" standalone="no"?>
<!DOCTYPE svg PUBLIC "-//W3C//DTD SVG 20010904//EN"
 "http://www.w3.org/TR/2001/REC-SVG-20010904/DTD/svg10.dtd">
<svg version="1.0" xmlns="http://www.w3.org/2000/svg"
 width="1488.000000pt" height="1488.000000pt" viewBox="0 0 1488.000000 1488.000000"
 preserveAspectRatio="xMidYMid meet">
<metadata>
Created by potrace 1.11, written by Peter Selinger 2001-2013
</metadata>
<g transform="translate(0.000000,1488.000000) scale(0.100000,-0.100000)"
fill="#000000" stroke="none">
<path d="M0 7440 l0 -7440 7440 0 7440 0 0 7440 0 7440 -7440 0 -7440 0 0
-7440z m13710 95 l0 -6265 -6260 0 -6260 0 0 6265 0 6265 6260 0 6260 0 0
-6265z"/>
<path d="M1360 7535 l0 -6095 6090 0 6090 0 0 6095 0 6095 -6090 0 -6090 0 0
-6095z m5593 5246 c438 -102 795 -356 1049 -746 163 -250 279 -596 317 -947
16 -139 13 -444 -4 -648 -38 -432 -104 -821 -232 -1360 -31 -129 -56 -242 -56
-250 1 -24 -60 -265 -68 -270 -10 -7 -192 -631 -185 -637 2 -3 69 -12 148 -20
529 -53 739 -141 738 -310 0 -67 -4 -68 -131 -34 -156 42 -273 59 -484 71 -99
5 -219 12 -267 15 l-87 5 -20 -68 c-154 -521 -324 -1166 -440 -1667 -312
-1357 -342 -2143 -100 -2615 89 -174 180 -265 344 -345 125 -61 188 -76 346
-82 108 -4 153 -2 215 12 146 32 298 111 422 217 l54 46 36 -15 c189 -78 288
-299 210 -466 -54 -116 -183 -204 -363 -249 -127 -31 -355 -31 -504 1 -213 45
-400 122 -571 236 -161 107 -357 330 -468 535 -214 393 -320 984 -292 1627 30
673 184 1604 445 2688 19 76 32 141 30 143 -2 2 -122 -2 -267 -9 -432 -20
-720 13 -805 93 -40 37 -45 82 -21 173 11 44 22 81 23 83 2 2 67 -4 146 -12
238 -25 520 -37 768 -34 l235 3 13 55 c64 258 177 686 183 690 10 7 121 415
125 460 2 20 42 184 88 365 200 774 274 1166 296 1586 26 500 -66 849 -288
1092 -98 106 -276 207 -451 254 -90 24 -275 24 -352 0 -127 -39 -231 -140
-279 -270 -21 -55 -23 -81 -24 -237 -1 -97 -5 -181 -9 -188 -11 -17 -169 -15
-241 3 -90 24 -169 71 -234 141 -83 88 -105 148 -106 284 0 90 4 115 28 180
80 220 298 380 590 436 106 20 385 12 500 -15z m-1578 -1101 c15 -14 34 -38
42 -54 16 -31 414 -1181 529 -1528 38 -114 71 -204 74 -200 4 4 19 36 35 72
29 66 452 948 674 1405 67 137 131 259 142 272 35 36 106 48 180 28 35 -8 65
-17 67 -20 2 -2 -6 -90 -17 -197 -44 -410 -66 -745 -82 -1243 -15 -489 -3
-580 89 -637 30 -18 44 -20 135 -15 56 4 113 7 126 9 19 2 26 -4 37 -34 l13
-37 -52 -19 c-327 -122 -499 -117 -566 17 -23 45 -30 77 -41 170 -18 162 34
1407 66 1591 4 19 4 33 2 30 -15 -15 -561 -1156 -799 -1667 -88 -191 -95 -203
-121 -203 -25 0 -28 5 -59 108 -41 133 -383 1156 -518 1547 l-100 290 0 -137
c-2 -508 -83 -1465 -141 -1671 -6 -21 -24 -52 -40 -70 -28 -32 -29 -32 -139
-35 -72 -3 -111 0 -111 7 0 5 15 45 34 88 118 269 203 713 246 1278 18 243 29
609 20 650 -18 78 -88 104 -240 87 -85 -10 -92 -6 -88 48 l3 35 95 18 c197 37
268 46 372 44 99 -2 108 -4 133 -27z m3140 -5561 c350 -35 547 -175 601 -427
35 -166 0 -373 -88 -519 -101 -168 -303 -311 -531 -377 -55 -16 -57 -18 -45
-39 41 -78 257 -426 339 -547 187 -278 360 -470 473 -525 73 -36 167 -43 252
-21 34 9 64 16 67 16 6 0 31 -90 26 -94 -2 -2 -44 -20 -94 -39 -221 -88 -364
-105 -465 -55 -158 78 -382 361 -677 853 -150 249 -273 470 -273 488 0 10 24
16 93 20 428 30 644 258 624 657 -3 63 -13 137 -21 163 -51 162 -169 265 -344
303 -69 14 -274 19 -355 8 l-45 -6 -6 -122 c-4 -66 -20 -526 -37 -1021 -40
-1204 -44 -1303 -52 -1312 -10 -9 -265 -41 -276 -34 -5 4 -1 173 9 406 33 701
41 948 47 1457 l6 497 -35 35 c-43 43 -96 52 -230 40 -108 -10 -108 -10 -108
62 l0 32 88 16 c194 35 547 78 722 89 126 8 233 6 335 -4z"/>
</g>
</svg>
