<svg id="Layer_1" data-name="Layer 1" xmlns="http://www.w3.org/2000/svg" width="36.68" height="17.73" viewBox="0 0 36.68 17.73"><defs><style>.cls-1{fill:#173a4d;}</style></defs><title>drop</title><g id="Layer_1-2" data-name="Layer 1-2"><path class="cls-1" d="M9.47,20.28H40.53a2.58,2.58,0,0,1,2.81,2.26h0a2.58,2.58,0,0,1-2.81,2.26H9.47a2.58,2.58,0,0,1-2.81-2.26h0A2.58,2.58,0,0,1,9.47,20.28Z" transform="translate(-6.66 -7.08)"/><path class="cls-1" d="M9.47,7.08H40.53a2.58,2.58,0,0,1,2.81,2.26h0a2.58,2.58,0,0,1-2.81,2.26H9.47A2.58,2.58,0,0,1,6.66,9.34h0A2.58,2.58,0,0,1,9.47,7.08Z" transform="translate(-6.66 -7.08)"/><path class="cls-1" d="M9.47,13.68H40.53a2.58,2.58,0,0,1,2.81,2.26h0a2.58,2.58,0,0,1-2.81,2.26H9.47a2.58,2.58,0,0,1-2.81-2.26h0A2.58,2.58,0,0,1,9.47,13.68Z" transform="translate(-6.66 -7.08)"/></g></svg>
