<svg xmlns="http://www.w3.org/2000/svg" xmlns:xlink="http://www.w3.org/1999/xlink" width="253" height="171" viewBox="0 0 253 171"><defs><style>.cls-1{fill:#874d93;}.cls-2{fill:#0f0e0e;}.cls-3{fill:#7c1e84;}.cls-30,.cls-32,.cls-4{fill:#fff;}.cls-5{fill:#fbe2d0;}.cls-6{fill:#e2cbbc;}.cls-7{fill:#c44bc4;}.cls-8{fill:#f4f4f4;}.cls-9{fill:#cc9cd8;}.cls-10{fill:#020002;}.cls-11{fill:#86398e;stroke:#a023c9;}.cls-11,.cls-12,.cls-13,.cls-25,.cls-28,.cls-29,.cls-30,.cls-31,.cls-32{stroke-miterlimit:10;}.cls-12,.cls-14,.cls-28{fill:none;}.cls-12,.cls-13{stroke:#8d1032;}.cls-13{fill:#d81a43;}.cls-15{fill:#1f0bb2;}.cls-16{fill:#21682a;}.cls-17{isolation:isolate;font-size:5.98px;font-family:MyriadPro-Regular, Myriad Pro;}.cls-18{fill:#070707;}.cls-19{fill:#121414;}.cls-20{fill:#f2f9f2;}.cls-21{fill:#798279;}.cls-22{fill:#408240;}.cls-23{fill:#0a080a;}.cls-24{fill:#f8f2f9;}.cls-25{fill:lime;stroke:blue;}.cls-26{fill:#f9f9f9;}.cls-27{fill:#250dd3;}.cls-28,.cls-29,.cls-30,.cls-31{stroke:#0a0a0a;}.cls-29{fill:#050404;}.cls-32{stroke:#000;}</style><symbol id="g1" data-name="g1" viewBox="0 0 300 300"><g id="V1"><g id="Hestehale-2"><path class="cls-1" d="M57.19,223.86s31,68.14,93.36,53.54,72.12-77.87,72.12-77.87S222.23,49.09,293,87.59c0,0-81-85-153.54,20.8S57.19,223.86,57.19,223.86Z"/></g><g id="Krop"><g id="venstre_ben-2" data-name="venstre ben-2"><path class="cls-2" d="M105,46.44s7.89-34.88-7.89-41.59-11,39.82-12.71,41.59Z"/><path class="cls-2" d="M62.41,46.44A98.08,98.08,0,0,1,60.8,35c-.19-2.42-.32-5.06-.28-7.74V25.88c0-.59,0-1.17.08-1.75A8.77,8.77,0,0,1,60.68,23c.66-7.88,3-15.36,9.27-18.11,7.58-3.35,10.21,6.6,11.15,17.61.09,1.07.17,2.15.23,3.23a5.23,5.23,0,0,0,0,.56q0,.3,0,.6c.12,2.41.19,4.78.22,7,.11,6.69,0,12,.54,12.59Z"/><path class="cls-3" d="M81.24,24.09H60.56a118.33,118.33,0,0,0,1.58,22.32l20.06.25S82.14,24.09,81.24,24.09Z"/><path class="cls-3" d="M84.85,24.09h22.52a109.14,109.14,0,0,1-1.73,22.32l-21.85.25S83.85,24.09,84.85,24.09Z"/><rect class="cls-4" x="65.6" y="17.24" width="7.52" height="4.42"/><rect class="cls-4" x="65.6" y="11.93" width="7.52" height="2.65"/><rect class="cls-4" x="92.59" y="10.6" width="7.52" height="2.65"/><rect class="cls-4" x="92.59" y="16.8" width="7.52" height="4.42"/></g><path class="cls-5" d="M169.14,154.62c0-40.44-37.64-73.23-84.07-73.23a96.37,96.37,0,0,0-20.8,2.25C27.89,91.7,1,120.42,1,154.62c0,40.44,37.64,73.23,84.07,73.23S169.14,195.06,169.14,154.62Z"/></g><path class="cls-6" d="M96.48,81s32.73,17.29,34.84,20.57c0,0,14.62,8.81,12.91-7.76S97.39,77.9,97.39,77.9Z"/><path class="cls-6" d="M74.91,79.7S42.18,97,40.06,100.27c0,0-14.62,8.81-12.91-7.76S74,76.58,74,76.58Z"/><g id="krop-2"><path class="cls-7" d="M62.28,46.22l2.5,38.94s29.62-6,39,0l2.29-38.94Z"/></g><g id="Øjne"><circle class="cls-8" cx="41.71" cy="158.82" r="38.49"/><ellipse class="cls-9" cx="41.49" cy="156.61" rx="33.63" ry="32.52"/><ellipse class="cls-10" cx="46.8" cy="157.94" rx="25" ry="24.34"/><circle class="cls-4" cx="50.33" cy="154.18" r="8.41"/><circle class="cls-4" cx="129.31" cy="157.94" r="38.49"/><ellipse class="cls-9" cx="128.21" cy="154.84" rx="33.63" ry="32.52"/><ellipse cx="125.11" cy="154.84" rx="25" ry="24.34"/><circle class="cls-4" cx="117.81" cy="154.84" r="8.41"/></g><g id="pandehår"><path class="cls-11" d="M26,206.73s-15.36-9.86-21.3-27.56c0,0,21.68,12.24,26.67,16.74,0,0,5.89.52-6.5-8.77s38.05,22.12,32.3,15.49-21.24-13.27-15.49-13.72,34.08,13.72,34.08,13.72S57.08,184,67.52,187.36s26.38,17.48,27.27,13-9.73-13.92-9.73-13.92S92.58,180.94,109,200s2.21-11.06,2.21-11.06,23.89,4.42,21.68,15.93,28-37.5,32.82-34.24S130.67,271.46,26,206.73"/></g><g id="Sløfe"><path class="cls-12" d="M57.19,229.17"/><path class="cls-13" d="M67,235.9l44.87,49.69,4.42-83L69.62,217S82.43,227,67,235.9Z"/><path class="cls-13" d="M61.84,235.81,17.11,285.37l-4.38-82.74L59.18,217S46.44,227,61.84,235.81Z"/><circle class="cls-13" cx="64.05" cy="224.97" r="11.73"/></g><g id="Mund"><path class="cls-4" d="M67.81,113.25s15.4-40.09,38.49,0Z"/></g><rect class="cls-14" width="300" height="300"/></g></symbol><symbol id="g1_2" data-name="g1 2" viewBox="0 0 300 300"><path class="cls-15" d="M31.69,204.24c-6,50.57,110.21,115.58,162.06,0,0,0,72.4-117.7,37.19-141.21S126.31,80.09,118.76,135.87,92.6,218.39,92.6,218.39Z"/><path id="hoved-13" class="cls-5" d="M208.3,172.16c0-45.78-42.79-82.9-95.58-82.9a109.76,109.76,0,0,0-23.63,2.55c-41.36,9.12-72,41.64-72,80.35a74.68,74.68,0,0,0,14.55,44c16.9,23.38,46.88,38.92,81,38.92C165.51,255.06,208.3,218,208.3,172.16Z"/><path id="krop-12" class="cls-16" d="M86.31,50.62l2.87,42.14s34-6.52,44.8,0l2.64-42.14Z"/><text class="cls-17" transform="matrix(1.01, 0, 0, -1, 84.29, 176.03)">21682A</text><path id="højre_ben-11" data-name="højre ben-11" class="cls-18" d="M134,50.62s8.44-39.31-8.44-46.87S113.84,48.6,112,50.62Z"/><path id="venstre_ben-11" data-name="venstre ben-11" class="cls-19" d="M87,50.62S78.38,11.31,95.62,3.75s12,44.86,13.88,46.87Z"/><ellipse id="øjne3-23" class="cls-20" cx="63.42" cy="168.3" rx="43.77" ry="43.38"/><path id="højre_arm-4" data-name="højre arm-4" class="cls-6" d="M163.27,108.09s14.52,3.67,13.73-.62-5.54-10.39-12.33-14.41-25.61-7.5-31.78-1.31Z"/><path id="t.shirt-23" class="cls-21" d="M153.12,103.37l4.15-16.12s-21.5-1.11-25.17,5.1Z"/><ellipse class="cls-22" cx="63.16" cy="166.8" rx="38.23" ry="36.65"/><ellipse id="øjne2-23" cx="69.2" cy="168.3" rx="28.42" ry="27.43"/><ellipse id="øjne_1-12" data-name="øjne 1-12" class="cls-4" cx="72.97" cy="168.3" rx="9.56" ry="9.47"/><ellipse id="øjne3-24" class="cls-4" cx="163.02" cy="169.8" rx="43.77" ry="43.38"/><ellipse class="cls-22" cx="163.28" cy="168.3" rx="38.23" ry="36.65"/><ellipse id="øjne2-24" class="cls-23" cx="158.25" cy="169.8" rx="28.42" ry="27.43"/><ellipse id="øjne1-12" class="cls-4" cx="151.45" cy="168.3" rx="9.56" ry="9.47"/><path id="Mund-12" class="cls-24" d="M101.65,122.92s9.06-20,22.64,0Z"/><path class="cls-25" d="M17.35,212.94"/><rect class="cls-26" x="91.84" y="14.97" width="7.04" height="3.99"/><rect class="cls-4" x="121.02" y="14.97" width="7.04" height="3.99"/><path class="cls-27" d="M27.25,209.33l167.88,4.85s-34.87,59-87.95,54.54S35.11,229.66,27.25,209.33Z"/><path d="M88.57,227.64h28.17S103.16,258.05,88.57,227.64Z"/><path id="højre_arm-5" data-name="højre arm-5" class="cls-6" d="M60.81,107.09s-14.52,3.67-13.73-.62,5.54-10.39,12.33-14.41S85,84.56,91.19,90.75Z"/><path id="t.shirt-24" class="cls-21" d="M71,102.37,66.8,86.25S88.3,85.14,92,91.35Z"/><rect class="cls-14" width="300" height="300"/></symbol></defs><title>Asset 16</title><g id="Layer_2" data-name="Layer 2"><g id="Animation"><use width="300" height="300" transform="matrix(0.56, 0, 0, -0.56, 0, 168)" xlink:href="#g1"/><use width="300" height="300" transform="matrix(0.54, 0, 0, -0.54, 90, 171)" xlink:href="#g1_2"/><ellipse class="cls-28" cx="106.75" cy="154.33" rx="14.25" ry="14.17"/><polygon class="cls-29" points="98.42 148.57 103.71 145.45 108.07 148.88 105.89 154.17 99.66 154.17 98.42 148.57"/><path class="cls-29" d="M102.24,140.88l3,.83,5.45-.83A14.26,14.26,0,0,0,102.24,140.88Z"/><polygon class="cls-30" points="103.71 145.45 105.27 141.71 111.29 140.97 115.24 145.45 113.68 148.88 108.07 148.88 103.71 145.45"/><path class="cls-29" d="M96.47,144.62s-3.15,2.2-3.87,8.06l3-5.05Z"/><path class="cls-31" d="M93.75,159.47l.31-1.56,3.11.62,3.12,5.3-1.49,2.26S93.75,162.58,93.75,159.47Z"/><polygon class="cls-30" points="114.61 159.47 117.11 154.17 113.68 148.88 108.07 148.88 105.89 154.17 109.01 159.78 114.61 159.47"/><polygon class="cls-31" points="115.24 163.83 114.61 159.47 109.01 159.78 106.2 164.45 109.94 166.32 115.24 163.83"/><path class="cls-30" d="M120.89,156.07l-1-2.83-2.8.93-2.5,5.3.63,4.36,2.86-.94S120.94,158.27,120.89,156.07Z"/><path class="cls-30" d="M111.19,141.09l4,4.36,3.87,1.83S115.55,141.4,111.19,141.09Z"/><polygon class="cls-29" points="119.91 153.24 119.91 149.13 118.97 147.32 115.24 145.45 113.68 148.88 117.11 154.17 119.91 153.24"/><polygon class="cls-30" points="98.45 148.57 95.7 147.63 92.66 152.93 94.18 157.91 97.22 158.53 99.66 154.17 98.45 148.57"/><polygon class="cls-30" points="97.17 158.53 100.29 163.83 106.2 164.45 109.01 159.78 106.05 154.44 99.66 154.17 97.17 158.53"/><path class="cls-30" d="M95.8,147.63l.9-3.34A13.73,13.73,0,0,1,102,141l3.3.74-1.56,3.74-5.29,3.12Z"/><path class="cls-32" d="M94.12,157.73l-1.52-4.65s-.41,3.9,1.15,6.39Z"/><path class="cls-30" d="M119.91,153.24V149.5a10.83,10.83,0,0,1,.93,5.92Z"/><polygon class="cls-30" points="97.17 158.53 100.29 163.83 106.2 164.45 109.01 159.78 105.89 154.48 99.66 154.17 97.17 158.53"/><path class="cls-30" d="M98.73,165.94l1.54-2.11,5.83.6,3.69,1.81-1.85,2.1S101.19,168.34,98.73,165.94Z"/><path class="cls-30" d="M108.07,168.19l1.87-1.87,5.3-2.49,2.51-.82S115.55,167.25,108.07,168.19Z"/></g></g></svg>
