<svg id="Layer_1" data-name="Layer 1" xmlns="http://www.w3.org/2000/svg" width="41.57" height="16.03" viewBox="0 0 41.57 16.03"><defs><style>.cls-1{fill:#fff;}</style></defs><title>dropdown1</title><g id="Layer_1-2" data-name="Layer 1-2"><path class="cls-1" d="M3.18,11.93H38.39c1.75,0,3.18.92,3.18,2.05h0c0,1.13-1.43,2.05-3.18,2.05H3.18C1.43,16,0,15.11,0,14H0C0,12.85,1.43,11.93,3.18,11.93Z"/><path class="cls-1" d="M3.18,0H38.39c1.75,0,3.18.92,3.18,2.05h0c0,1.13-1.43,2-3.18,2H3.18C1.43,4.09,0,3.18,0,2.05H0C0,.92,1.43,0,3.18,0Z"/><path class="cls-1" d="M3.18,6H38.39c1.75,0,3.18.91,3.18,2h0c0,1.13-1.43,2.05-3.18,2.05H3.18C1.43,10.06,0,9.14,0,8H0C0,6.88,1.43,6,3.18,6Z"/></g></svg>
